<svg xmlns="http://www.w3.org/2000/svg" viewBox="0 0 48 48">
  <defs>
    <linearGradient id="fg" x1="0" y1="0" x2="1" y2="1">
      <stop offset="0%" stop-color="#6E78D6"/>
      <stop offset="100%" stop-color="#7B5FAF"/>
    </linearGradient>
  </defs>
  <rect width="48" height="48" rx="12" fill="url(#fg)"/>
  <g transform="translate(6,5) scale(1.5)">
    <path d="M11,10A6,6,0,0,0,6,4.09V4A2,2,0,0,1,8,2H20a2,2,0,0,1,2,2V21a1,1,0,0,1-1.39.92l-1.95-.83-1.94.83a1,1,0,0,1-.78,0L14,21.09l-1.94.83a1,1,0,0,1-.78,0l-1.94-.83-1.94.83A1,1,0,0,1,7,22a1,1,0,0,1-.55-.17A1,1,0,0,1,6,21V15.91A6,6,0,0,0,11,10Z" fill="#fff"/>
    <path d="M8,11.5A2.5,2.5,0,0,1,6,14V14a1,1,0,0,1-2,0H3a1,1,0,0,1,0-2H5.5a.5.5,0,0,0,0-1h-1A2.5,2.5,0,0,1,4,6.05V6A1,1,0,0,1,6,6H7A1,1,0,0,1,7,8H4.5a.5.5,0,0,0,0,1h1A2.5,2.5,0,0,1,8,11.5ZM13,16h5a1,1,0,0,0,0-2H13a1,1,0,0,0,0,2Zm2-4h3a1,1,0,0,0,0-2H15a1,1,0,0,0,0,2Z" fill="rgba(255,255,255,0.75)"/>
  </g>
</svg>
